<mxfile host="Electron" modified="2025-05-12T10:39:00.518Z" agent="Mozilla/5.0 (Windows NT 10.0; Win64; x64) AppleWebKit/537.36 (KHTML, like Gecko) draw.io/24.1.0 Chrome/120.0.6099.109 Electron/28.1.0 Safari/537.36" etag="7M5U4nX2Ol1tSlESqTVi" version="24.1.0" type="device">
  <diagram name="Страница — 1" id="kj0vpOp2e1w9-zOvI4KL">
    <mxGraphModel dx="-3727" dy="1900" grid="0" gridSize="10" guides="1" tooltips="1" connect="1" arrows="1" fold="1" page="1" pageScale="1" pageWidth="1654" pageHeight="1169" math="0" shadow="0">
      <root>
        <mxCell id="0" />
        <mxCell id="1" parent="0" />
        <mxCell id="VZfSvNCtM3Qqw5bsFJ7D-1" value="" style="rounded=0;whiteSpace=wrap;html=1;" parent="1" vertex="1">
          <mxGeometry x="5065" y="-1014" width="1486.5" height="209" as="geometry" />
        </mxCell>
        <mxCell id="VZfSvNCtM3Qqw5bsFJ7D-2" value="" style="endArrow=none;html=1;rounded=0;exitX=0.057;exitY=1.008;exitDx=0;exitDy=0;exitPerimeter=0;entryX=0.056;entryY=0.018;entryDx=0;entryDy=0;entryPerimeter=0;" parent="1" edge="1">
          <mxGeometry width="50" height="50" relative="1" as="geometry">
            <mxPoint x="5120.7305" y="-805.328" as="sourcePoint" />
            <mxPoint x="5119.244" y="-1012.238" as="targetPoint" />
          </mxGeometry>
        </mxCell>
        <mxCell id="VZfSvNCtM3Qqw5bsFJ7D-3" value="&lt;span style=&quot;font-size: 18px;&quot;&gt;Администратор&lt;/span&gt;" style="text;html=1;align=center;verticalAlign=middle;whiteSpace=wrap;rounded=0;rotation=-90;" parent="1" vertex="1">
          <mxGeometry x="4985.5" y="-919" width="210.5" height="30" as="geometry" />
        </mxCell>
        <mxCell id="VZfSvNCtM3Qqw5bsFJ7D-4" value="Создать новый онлайн-курс" style="points=[[0.25,0,0],[0.5,0,0],[0.75,0,0],[1,0.25,0],[1,0.5,0],[1,0.75,0],[0.75,1,0],[0.5,1,0],[0.25,1,0],[0,0.75,0],[0,0.5,0],[0,0.25,0]];shape=mxgraph.bpmn.task;whiteSpace=wrap;rectStyle=rounded;size=10;html=1;container=1;expand=0;collapsible=0;taskMarker=manual;" parent="1" vertex="1">
          <mxGeometry x="5236.5" y="-947" width="120" height="80" as="geometry" />
        </mxCell>
        <mxCell id="VZfSvNCtM3Qqw5bsFJ7D-5" value="" style="ellipse;whiteSpace=wrap;html=1;aspect=fixed;" parent="1" vertex="1">
          <mxGeometry x="5134.25" y="-932" width="50" height="50" as="geometry" />
        </mxCell>
        <mxCell id="VZfSvNCtM3Qqw5bsFJ7D-6" value="Войти в систему" style="text;html=1;align=center;verticalAlign=middle;whiteSpace=wrap;rounded=0;" parent="1" vertex="1">
          <mxGeometry x="5126.25" y="-869.5" width="106" height="30" as="geometry" />
        </mxCell>
        <mxCell id="VZfSvNCtM3Qqw5bsFJ7D-7" style="edgeStyle=orthogonalEdgeStyle;rounded=0;orthogonalLoop=1;jettySize=auto;html=1;exitX=1;exitY=0.5;exitDx=0;exitDy=0;exitPerimeter=0;entryX=0;entryY=0.5;entryDx=0;entryDy=0;entryPerimeter=0;" parent="1" source="VZfSvNCtM3Qqw5bsFJ7D-8" target="VZfSvNCtM3Qqw5bsFJ7D-11" edge="1">
          <mxGeometry relative="1" as="geometry">
            <mxPoint x="5741.5" y="-907" as="targetPoint" />
          </mxGeometry>
        </mxCell>
        <mxCell id="VZfSvNCtM3Qqw5bsFJ7D-8" value="Назначить преподавателя на курс" style="points=[[0.25,0,0],[0.5,0,0],[0.75,0,0],[1,0.25,0],[1,0.5,0],[1,0.75,0],[0.75,1,0],[0.5,1,0],[0.25,1,0],[0,0.75,0],[0,0.5,0],[0,0.25,0]];shape=mxgraph.bpmn.task;whiteSpace=wrap;rectStyle=rounded;size=10;html=1;container=1;expand=0;collapsible=0;taskMarker=manual;" parent="1" vertex="1">
          <mxGeometry x="5690" y="-947" width="120" height="80" as="geometry" />
        </mxCell>
        <mxCell id="VZfSvNCtM3Qqw5bsFJ7D-9" value="" style="points=[[0.145,0.145,0],[0.5,0,0],[0.855,0.145,0],[1,0.5,0],[0.855,0.855,0],[0.5,1,0],[0.145,0.855,0],[0,0.5,0]];shape=mxgraph.bpmn.event;html=1;verticalLabelPosition=bottom;labelBackgroundColor=#ffffff;verticalAlign=top;align=center;perimeter=ellipsePerimeter;outlineConnect=0;aspect=fixed;outline=catching;symbol=timer;" parent="1" vertex="1">
          <mxGeometry x="5500.75" y="-932" width="50" height="50" as="geometry" />
        </mxCell>
        <mxCell id="VZfSvNCtM3Qqw5bsFJ7D-11" value="Добавить новый курс в список онлайн-курсов" style="points=[[0.25,0,0],[0.5,0,0],[0.75,0,0],[1,0.25,0],[1,0.5,0],[1,0.75,0],[0.75,1,0],[0.5,1,0],[0.25,1,0],[0,0.75,0],[0,0.5,0],[0,0.25,0]];shape=mxgraph.bpmn.task;whiteSpace=wrap;rectStyle=rounded;size=10;html=1;container=1;expand=0;collapsible=0;taskMarker=manual;" parent="1" vertex="1">
          <mxGeometry x="5945.5" y="-947" width="120" height="80" as="geometry" />
        </mxCell>
        <mxCell id="VZfSvNCtM3Qqw5bsFJ7D-12" value="Обновить список онлайн-курсов" style="points=[[0.25,0,0],[0.5,0,0],[0.75,0,0],[1,0.25,0],[1,0.5,0],[1,0.75,0],[0.75,1,0],[0.5,1,0],[0.25,1,0],[0,0.75,0],[0,0.5,0],[0,0.25,0]];shape=mxgraph.bpmn.task;whiteSpace=wrap;rectStyle=rounded;size=10;html=1;container=1;expand=0;collapsible=0;taskMarker=manual;" parent="1" vertex="1">
          <mxGeometry x="6148.5" y="-947" width="120" height="80" as="geometry" />
        </mxCell>
        <mxCell id="VZfSvNCtM3Qqw5bsFJ7D-13" value="" style="points=[[0.145,0.145,0],[0.5,0,0],[0.855,0.145,0],[1,0.5,0],[0.855,0.855,0],[0.5,1,0],[0.145,0.855,0],[0,0.5,0]];shape=mxgraph.bpmn.event;html=1;verticalLabelPosition=bottom;labelBackgroundColor=#ffffff;verticalAlign=top;align=center;perimeter=ellipsePerimeter;outlineConnect=0;aspect=fixed;outline=throwing;symbol=general;" parent="1" vertex="1">
          <mxGeometry x="6481.5" y="-932" width="50" height="50" as="geometry" />
        </mxCell>
        <mxCell id="VZfSvNCtM3Qqw5bsFJ7D-14" style="edgeStyle=orthogonalEdgeStyle;rounded=0;orthogonalLoop=1;jettySize=auto;html=1;exitX=1;exitY=0.5;exitDx=0;exitDy=0;exitPerimeter=0;" parent="1" source="VZfSvNCtM3Qqw5bsFJ7D-15" target="VZfSvNCtM3Qqw5bsFJ7D-13" edge="1">
          <mxGeometry relative="1" as="geometry" />
        </mxCell>
        <mxCell id="VZfSvNCtM3Qqw5bsFJ7D-15" value="" style="points=[[0.145,0.145,0],[0.5,0,0],[0.855,0.145,0],[1,0.5,0],[0.855,0.855,0],[0.5,1,0],[0.145,0.855,0],[0,0.5,0]];shape=mxgraph.bpmn.event;html=1;verticalLabelPosition=bottom;labelBackgroundColor=#ffffff;verticalAlign=top;align=center;perimeter=ellipsePerimeter;outlineConnect=0;aspect=fixed;outline=catching;symbol=timer;" parent="1" vertex="1">
          <mxGeometry x="6348.75" y="-932" width="50" height="50" as="geometry" />
        </mxCell>
        <mxCell id="VZfSvNCtM3Qqw5bsFJ7D-16" style="edgeStyle=orthogonalEdgeStyle;rounded=0;orthogonalLoop=1;jettySize=auto;html=1;exitX=1;exitY=0.5;exitDx=0;exitDy=0;entryX=0;entryY=0.5;entryDx=0;entryDy=0;entryPerimeter=0;" parent="1" source="VZfSvNCtM3Qqw5bsFJ7D-5" target="VZfSvNCtM3Qqw5bsFJ7D-4" edge="1">
          <mxGeometry relative="1" as="geometry" />
        </mxCell>
        <mxCell id="VZfSvNCtM3Qqw5bsFJ7D-17" style="edgeStyle=orthogonalEdgeStyle;rounded=0;orthogonalLoop=1;jettySize=auto;html=1;exitX=1;exitY=0.5;exitDx=0;exitDy=0;exitPerimeter=0;entryX=0;entryY=0.5;entryDx=0;entryDy=0;entryPerimeter=0;" parent="1" source="VZfSvNCtM3Qqw5bsFJ7D-4" target="VZfSvNCtM3Qqw5bsFJ7D-9" edge="1">
          <mxGeometry relative="1" as="geometry" />
        </mxCell>
        <mxCell id="VZfSvNCtM3Qqw5bsFJ7D-18" style="edgeStyle=orthogonalEdgeStyle;rounded=0;orthogonalLoop=1;jettySize=auto;html=1;exitX=1;exitY=0.5;exitDx=0;exitDy=0;exitPerimeter=0;entryX=0;entryY=0.5;entryDx=0;entryDy=0;entryPerimeter=0;" parent="1" source="VZfSvNCtM3Qqw5bsFJ7D-9" target="VZfSvNCtM3Qqw5bsFJ7D-8" edge="1">
          <mxGeometry relative="1" as="geometry" />
        </mxCell>
        <mxCell id="VZfSvNCtM3Qqw5bsFJ7D-20" style="edgeStyle=orthogonalEdgeStyle;rounded=0;orthogonalLoop=1;jettySize=auto;html=1;exitX=1;exitY=0.5;exitDx=0;exitDy=0;exitPerimeter=0;entryX=0;entryY=0.5;entryDx=0;entryDy=0;entryPerimeter=0;" parent="1" source="VZfSvNCtM3Qqw5bsFJ7D-11" target="VZfSvNCtM3Qqw5bsFJ7D-12" edge="1">
          <mxGeometry relative="1" as="geometry" />
        </mxCell>
        <mxCell id="VZfSvNCtM3Qqw5bsFJ7D-21" style="edgeStyle=orthogonalEdgeStyle;rounded=0;orthogonalLoop=1;jettySize=auto;html=1;entryX=0;entryY=0.5;entryDx=0;entryDy=0;entryPerimeter=0;" parent="1" source="VZfSvNCtM3Qqw5bsFJ7D-12" target="VZfSvNCtM3Qqw5bsFJ7D-15" edge="1">
          <mxGeometry relative="1" as="geometry" />
        </mxCell>
        <mxCell id="VZfSvNCtM3Qqw5bsFJ7D-22" value="" style="rounded=0;whiteSpace=wrap;html=1;" parent="1" vertex="1">
          <mxGeometry x="5064" y="-682" width="1491" height="213" as="geometry" />
        </mxCell>
        <mxCell id="VZfSvNCtM3Qqw5bsFJ7D-24" value="" style="rounded=0;whiteSpace=wrap;html=1;" parent="1" vertex="1">
          <mxGeometry x="5061" y="-312" width="1501" height="217" as="geometry" />
        </mxCell>
        <mxCell id="VZfSvNCtM3Qqw5bsFJ7D-25" value="" style="endArrow=none;html=1;rounded=0;exitX=0.056;exitY=1.016;exitDx=0;exitDy=0;exitPerimeter=0;" parent="1" edge="1">
          <mxGeometry width="50" height="50" relative="1" as="geometry">
            <mxPoint x="5120.04" y="-92.04800000000023" as="sourcePoint" />
            <mxPoint x="5120" y="-312" as="targetPoint" />
          </mxGeometry>
        </mxCell>
        <mxCell id="VZfSvNCtM3Qqw5bsFJ7D-26" value="&lt;font style=&quot;font-size: 18px;&quot;&gt;Программное средство&lt;/font&gt;" style="text;html=1;align=center;verticalAlign=middle;whiteSpace=wrap;rounded=0;rotation=-90;" parent="1" vertex="1">
          <mxGeometry x="4994.12" y="-588" width="205.88" height="30" as="geometry" />
        </mxCell>
        <mxCell id="VZfSvNCtM3Qqw5bsFJ7D-27" style="edgeStyle=orthogonalEdgeStyle;rounded=0;orthogonalLoop=1;jettySize=auto;html=1;exitX=1;exitY=0.5;exitDx=0;exitDy=0;entryX=0;entryY=0.5;entryDx=0;entryDy=0;" parent="1" source="VZfSvNCtM3Qqw5bsFJ7D-28" target="VZfSvNCtM3Qqw5bsFJ7D-30" edge="1">
          <mxGeometry relative="1" as="geometry" />
        </mxCell>
        <mxCell id="VZfSvNCtM3Qqw5bsFJ7D-28" value="" style="ellipse;whiteSpace=wrap;html=1;aspect=fixed;" parent="1" vertex="1">
          <mxGeometry x="5151" y="-241" width="50" height="50" as="geometry" />
        </mxCell>
        <mxCell id="VZfSvNCtM3Qqw5bsFJ7D-29" value="Есть ли онлайн-курсы базе данных предприятия?" style="text;html=1;align=center;verticalAlign=middle;whiteSpace=wrap;rounded=0;" parent="1" vertex="1">
          <mxGeometry x="5113" y="-287" width="182" height="30" as="geometry" />
        </mxCell>
        <mxCell id="VZfSvNCtM3Qqw5bsFJ7D-30" value="&lt;font style=&quot;font-size: 24px;&quot;&gt;Х&lt;/font&gt;" style="rhombus;whiteSpace=wrap;html=1;" parent="1" vertex="1">
          <mxGeometry x="5290.75" y="-245.5" width="60" height="59" as="geometry" />
        </mxCell>
        <mxCell id="VZfSvNCtM3Qqw5bsFJ7D-31" value="Добавить новый онлайн-курс в систему" style="points=[[0.25,0,0],[0.5,0,0],[0.75,0,0],[1,0.25,0],[1,0.5,0],[1,0.75,0],[0.75,1,0],[0.5,1,0],[0.25,1,0],[0,0.75,0],[0,0.5,0],[0,0.25,0]];shape=mxgraph.bpmn.task;whiteSpace=wrap;rectStyle=rounded;size=10;html=1;container=1;expand=0;collapsible=0;taskMarker=user;" parent="1" vertex="1">
          <mxGeometry x="5380.75" y="-190" width="120" height="80" as="geometry" />
        </mxCell>
        <mxCell id="VZfSvNCtM3Qqw5bsFJ7D-32" value="" style="points=[[0.145,0.145,0],[0.5,0,0],[0.855,0.145,0],[1,0.5,0],[0.855,0.855,0],[0.5,1,0],[0.145,0.855,0],[0,0.5,0]];shape=mxgraph.bpmn.event;html=1;verticalLabelPosition=bottom;labelBackgroundColor=#ffffff;verticalAlign=top;align=center;perimeter=ellipsePerimeter;outlineConnect=0;aspect=fixed;outline=standard;symbol=message;" parent="1" vertex="1">
          <mxGeometry x="5139.75" y="-598" width="50" height="50" as="geometry" />
        </mxCell>
        <mxCell id="VZfSvNCtM3Qqw5bsFJ7D-33" value="Новый онлайн-курс" style="text;html=1;align=center;verticalAlign=middle;whiteSpace=wrap;rounded=0;" parent="1" vertex="1">
          <mxGeometry x="5501.75" y="-127" width="182" height="30" as="geometry" />
        </mxCell>
        <mxCell id="VZfSvNCtM3Qqw5bsFJ7D-34" value="" style="points=[[0.145,0.145,0],[0.5,0,0],[0.855,0.145,0],[1,0.5,0],[0.855,0.855,0],[0.5,1,0],[0.145,0.855,0],[0,0.5,0]];shape=mxgraph.bpmn.event;html=1;verticalLabelPosition=bottom;labelBackgroundColor=#ffffff;verticalAlign=top;align=center;perimeter=ellipsePerimeter;outlineConnect=0;aspect=fixed;outline=end;symbol=message;" parent="1" vertex="1">
          <mxGeometry x="5560.75" y="-175" width="50" height="50" as="geometry" />
        </mxCell>
        <mxCell id="VZfSvNCtM3Qqw5bsFJ7D-35" value="Выбрать онлайн-курс из доступных в базе данных" style="points=[[0.25,0,0],[0.5,0,0],[0.75,0,0],[1,0.25,0],[1,0.5,0],[1,0.75,0],[0.75,1,0],[0.5,1,0],[0.25,1,0],[0,0.75,0],[0,0.5,0],[0,0.25,0]];shape=mxgraph.bpmn.task;whiteSpace=wrap;rectStyle=rounded;size=10;html=1;container=1;expand=0;collapsible=0;taskMarker=user;" parent="1" vertex="1">
          <mxGeometry x="5660" y="-256" width="120" height="80" as="geometry" />
        </mxCell>
        <mxCell id="VZfSvNCtM3Qqw5bsFJ7D-36" value="Разработать методический материал" style="points=[[0.25,0,0],[0.5,0,0],[0.75,0,0],[1,0.25,0],[1,0.5,0],[1,0.75,0],[0.75,1,0],[0.5,1,0],[0.25,1,0],[0,0.75,0],[0,0.5,0],[0,0.25,0]];shape=mxgraph.bpmn.task;whiteSpace=wrap;rectStyle=rounded;size=10;html=1;container=1;expand=0;collapsible=0;taskMarker=user;" parent="1" vertex="1">
          <mxGeometry x="5820" y="-256.5" width="120" height="80" as="geometry" />
        </mxCell>
        <mxCell id="VZfSvNCtM3Qqw5bsFJ7D-37" style="edgeStyle=orthogonalEdgeStyle;rounded=0;orthogonalLoop=1;jettySize=auto;html=1;exitX=1;exitY=0.5;exitDx=0;exitDy=0;exitPerimeter=0;" parent="1" source="VZfSvNCtM3Qqw5bsFJ7D-38" target="VZfSvNCtM3Qqw5bsFJ7D-39" edge="1">
          <mxGeometry relative="1" as="geometry" />
        </mxCell>
        <mxCell id="VZfSvNCtM3Qqw5bsFJ7D-38" value="Разработать материал проверки знаний" style="points=[[0.25,0,0],[0.5,0,0],[0.75,0,0],[1,0.25,0],[1,0.5,0],[1,0.75,0],[0.75,1,0],[0.5,1,0],[0.25,1,0],[0,0.75,0],[0,0.5,0],[0,0.25,0]];shape=mxgraph.bpmn.task;whiteSpace=wrap;rectStyle=rounded;size=10;html=1;container=1;expand=0;collapsible=0;taskMarker=user;" parent="1" vertex="1">
          <mxGeometry x="5980" y="-257" width="120" height="80" as="geometry" />
        </mxCell>
        <mxCell id="VZfSvNCtM3Qqw5bsFJ7D-39" value="" style="points=[[0.145,0.145,0],[0.5,0,0],[0.855,0.145,0],[1,0.5,0],[0.855,0.855,0],[0.5,1,0],[0.145,0.855,0],[0,0.5,0]];shape=mxgraph.bpmn.event;html=1;verticalLabelPosition=bottom;labelBackgroundColor=#ffffff;verticalAlign=top;align=center;perimeter=ellipsePerimeter;outlineConnect=0;aspect=fixed;outline=end;symbol=message;" parent="1" vertex="1">
          <mxGeometry x="6155" y="-243" width="50" height="50" as="geometry" />
        </mxCell>
        <mxCell id="VZfSvNCtM3Qqw5bsFJ7D-40" value="Сфоримрованное содержание онлайн-курса" style="text;html=1;align=center;verticalAlign=middle;whiteSpace=wrap;rounded=0;" parent="1" vertex="1">
          <mxGeometry x="6096" y="-186.5" width="182" height="30" as="geometry" />
        </mxCell>
        <mxCell id="VZfSvNCtM3Qqw5bsFJ7D-41" value="Новый онлайн-курс" style="text;html=1;align=center;verticalAlign=middle;whiteSpace=wrap;rounded=0;" parent="1" vertex="1">
          <mxGeometry x="5098.75" y="-648" width="182" height="30" as="geometry" />
        </mxCell>
        <mxCell id="VZfSvNCtM3Qqw5bsFJ7D-42" value="Проверить корректность данных" style="points=[[0.25,0,0],[0.5,0,0],[0.75,0,0],[1,0.25,0],[1,0.5,0],[1,0.75,0],[0.75,1,0],[0.5,1,0],[0.25,1,0],[0,0.75,0],[0,0.5,0],[0,0.25,0]];shape=mxgraph.bpmn.task;whiteSpace=wrap;rectStyle=rounded;size=10;html=1;container=1;expand=0;collapsible=0;taskMarker=service;" parent="1" vertex="1">
          <mxGeometry x="5252.25" y="-613.5" width="120" height="80" as="geometry" />
        </mxCell>
        <mxCell id="VZfSvNCtM3Qqw5bsFJ7D-43" value="Добавить онлайн-курс в базу данных предприятия" style="points=[[0.25,0,0],[0.5,0,0],[0.75,0,0],[1,0.25,0],[1,0.5,0],[1,0.75,0],[0.75,1,0],[0.5,1,0],[0.25,1,0],[0,0.75,0],[0,0.5,0],[0,0.25,0]];shape=mxgraph.bpmn.task;whiteSpace=wrap;rectStyle=rounded;size=10;html=1;container=1;expand=0;collapsible=0;taskMarker=service;" parent="1" vertex="1">
          <mxGeometry x="5414.75" y="-613.5" width="120" height="80" as="geometry" />
        </mxCell>
        <mxCell id="VZfSvNCtM3Qqw5bsFJ7D-44" value="" style="points=[[0.145,0.145,0],[0.5,0,0],[0.855,0.145,0],[1,0.5,0],[0.855,0.855,0],[0.5,1,0],[0.145,0.855,0],[0,0.5,0]];shape=mxgraph.bpmn.event;html=1;verticalLabelPosition=bottom;labelBackgroundColor=#ffffff;verticalAlign=top;align=center;perimeter=ellipsePerimeter;outlineConnect=0;aspect=fixed;outline=standard;symbol=message;" parent="1" vertex="1">
          <mxGeometry x="5587.75" y="-598.5" width="50" height="50" as="geometry" />
        </mxCell>
        <mxCell id="VZfSvNCtM3Qqw5bsFJ7D-45" value="Сфоримрованное содержание онлайн-курса" style="text;html=1;align=center;verticalAlign=middle;whiteSpace=wrap;rounded=0;" parent="1" vertex="1">
          <mxGeometry x="5519.75" y="-640" width="182" height="30" as="geometry" />
        </mxCell>
        <mxCell id="VZfSvNCtM3Qqw5bsFJ7D-46" style="edgeStyle=orthogonalEdgeStyle;rounded=0;orthogonalLoop=1;jettySize=auto;html=1;exitX=1;exitY=0.5;exitDx=0;exitDy=0;exitPerimeter=0;" parent="1" source="VZfSvNCtM3Qqw5bsFJ7D-47" target="VZfSvNCtM3Qqw5bsFJ7D-50" edge="1">
          <mxGeometry relative="1" as="geometry" />
        </mxCell>
        <mxCell id="VZfSvNCtM3Qqw5bsFJ7D-47" value="Проверить корректность данных курса" style="points=[[0.25,0,0],[0.5,0,0],[0.75,0,0],[1,0.25,0],[1,0.5,0],[1,0.75,0],[0.75,1,0],[0.5,1,0],[0.25,1,0],[0,0.75,0],[0,0.5,0],[0,0.25,0]];shape=mxgraph.bpmn.task;whiteSpace=wrap;rectStyle=rounded;size=10;html=1;container=1;expand=0;collapsible=0;taskMarker=service;" parent="1" vertex="1">
          <mxGeometry x="5721" y="-614" width="120" height="80" as="geometry" />
        </mxCell>
        <mxCell id="VZfSvNCtM3Qqw5bsFJ7D-48" value="Вывести сообщение об ошибке" style="points=[[0.25,0,0],[0.5,0,0],[0.75,0,0],[1,0.25,0],[1,0.5,0],[1,0.75,0],[0.75,1,0],[0.5,1,0],[0.25,1,0],[0,0.75,0],[0,0.5,0],[0,0.25,0]];shape=mxgraph.bpmn.task;whiteSpace=wrap;rectStyle=rounded;size=10;html=1;container=1;expand=0;collapsible=0;taskMarker=receive;" parent="1" vertex="1">
          <mxGeometry x="5960" y="-558.5" width="120" height="80" as="geometry" />
        </mxCell>
        <mxCell id="VZfSvNCtM3Qqw5bsFJ7D-49" value="Добавить материал курсов в базу данных предприятия" style="points=[[0.25,0,0],[0.5,0,0],[0.75,0,0],[1,0.25,0],[1,0.5,0],[1,0.75,0],[0.75,1,0],[0.5,1,0],[0.25,1,0],[0,0.75,0],[0,0.5,0],[0,0.25,0]];shape=mxgraph.bpmn.task;whiteSpace=wrap;rectStyle=rounded;size=10;html=1;container=1;expand=0;collapsible=0;taskMarker=service;" parent="1" vertex="1">
          <mxGeometry x="6175.25" y="-614.55" width="120" height="80" as="geometry" />
        </mxCell>
        <mxCell id="VZfSvNCtM3Qqw5bsFJ7D-50" value="&lt;font style=&quot;font-size: 24px;&quot;&gt;Х&lt;/font&gt;" style="rhombus;whiteSpace=wrap;html=1;" parent="1" vertex="1">
          <mxGeometry x="5885" y="-603.5" width="60" height="59" as="geometry" />
        </mxCell>
        <mxCell id="VZfSvNCtM3Qqw5bsFJ7D-51" value="" style="shape=datastore;whiteSpace=wrap;html=1;" parent="1" vertex="1">
          <mxGeometry x="5843" y="-443" width="77" height="67" as="geometry" />
        </mxCell>
        <mxCell id="VZfSvNCtM3Qqw5bsFJ7D-52" value="База данных предприятия" style="text;html=1;align=center;verticalAlign=middle;whiteSpace=wrap;rounded=0;" parent="1" vertex="1">
          <mxGeometry x="5803" y="-375" width="182" height="30" as="geometry" />
        </mxCell>
        <mxCell id="VZfSvNCtM3Qqw5bsFJ7D-53" style="edgeStyle=orthogonalEdgeStyle;rounded=0;orthogonalLoop=1;jettySize=auto;html=1;exitX=0.5;exitY=1;exitDx=0;exitDy=0;entryX=0;entryY=0.5;entryDx=0;entryDy=0;entryPerimeter=0;" parent="1" source="VZfSvNCtM3Qqw5bsFJ7D-30" target="VZfSvNCtM3Qqw5bsFJ7D-31" edge="1">
          <mxGeometry relative="1" as="geometry" />
        </mxCell>
        <mxCell id="VZfSvNCtM3Qqw5bsFJ7D-54" style="edgeStyle=orthogonalEdgeStyle;rounded=0;orthogonalLoop=1;jettySize=auto;html=1;exitX=1;exitY=0.5;exitDx=0;exitDy=0;entryX=0;entryY=0.5;entryDx=0;entryDy=0;entryPerimeter=0;" parent="1" source="VZfSvNCtM3Qqw5bsFJ7D-30" target="VZfSvNCtM3Qqw5bsFJ7D-35" edge="1">
          <mxGeometry relative="1" as="geometry" />
        </mxCell>
        <mxCell id="VZfSvNCtM3Qqw5bsFJ7D-55" style="edgeStyle=orthogonalEdgeStyle;rounded=0;orthogonalLoop=1;jettySize=auto;html=1;exitX=1;exitY=0.5;exitDx=0;exitDy=0;exitPerimeter=0;entryX=0;entryY=0.5;entryDx=0;entryDy=0;entryPerimeter=0;" parent="1" source="VZfSvNCtM3Qqw5bsFJ7D-31" target="VZfSvNCtM3Qqw5bsFJ7D-34" edge="1">
          <mxGeometry relative="1" as="geometry" />
        </mxCell>
        <mxCell id="VZfSvNCtM3Qqw5bsFJ7D-56" style="edgeStyle=orthogonalEdgeStyle;rounded=0;orthogonalLoop=1;jettySize=auto;html=1;exitX=1;exitY=0.5;exitDx=0;exitDy=0;exitPerimeter=0;entryX=0;entryY=0.5;entryDx=0;entryDy=0;entryPerimeter=0;" parent="1" source="VZfSvNCtM3Qqw5bsFJ7D-35" target="VZfSvNCtM3Qqw5bsFJ7D-36" edge="1">
          <mxGeometry relative="1" as="geometry" />
        </mxCell>
        <mxCell id="VZfSvNCtM3Qqw5bsFJ7D-57" style="edgeStyle=orthogonalEdgeStyle;rounded=0;orthogonalLoop=1;jettySize=auto;html=1;exitX=1;exitY=0.5;exitDx=0;exitDy=0;exitPerimeter=0;entryX=0;entryY=0.5;entryDx=0;entryDy=0;entryPerimeter=0;" parent="1" source="VZfSvNCtM3Qqw5bsFJ7D-36" target="VZfSvNCtM3Qqw5bsFJ7D-38" edge="1">
          <mxGeometry relative="1" as="geometry" />
        </mxCell>
        <mxCell id="VZfSvNCtM3Qqw5bsFJ7D-58" value="" style="endArrow=none;dashed=1;html=1;rounded=0;exitX=0.5;exitY=0;exitDx=0;exitDy=0;exitPerimeter=0;" parent="1" source="VZfSvNCtM3Qqw5bsFJ7D-34" edge="1">
          <mxGeometry width="50" height="50" relative="1" as="geometry">
            <mxPoint x="5674" y="-402" as="sourcePoint" />
            <mxPoint x="5586" y="-404" as="targetPoint" />
          </mxGeometry>
        </mxCell>
        <mxCell id="VZfSvNCtM3Qqw5bsFJ7D-59" value="" style="endArrow=none;dashed=1;html=1;rounded=0;" parent="1" edge="1">
          <mxGeometry width="50" height="50" relative="1" as="geometry">
            <mxPoint x="5161" y="-405" as="sourcePoint" />
            <mxPoint x="5585" y="-405" as="targetPoint" />
          </mxGeometry>
        </mxCell>
        <mxCell id="VZfSvNCtM3Qqw5bsFJ7D-60" value="" style="endArrow=none;dashed=1;html=1;rounded=0;entryX=0.5;entryY=1;entryDx=0;entryDy=0;entryPerimeter=0;" parent="1" target="VZfSvNCtM3Qqw5bsFJ7D-32" edge="1">
          <mxGeometry width="50" height="50" relative="1" as="geometry">
            <mxPoint x="5165" y="-404" as="sourcePoint" />
            <mxPoint x="5169" y="-444" as="targetPoint" />
          </mxGeometry>
        </mxCell>
        <mxCell id="VZfSvNCtM3Qqw5bsFJ7D-61" value="" style="endArrow=classic;html=1;rounded=0;entryX=0.5;entryY=1;entryDx=0;entryDy=0;entryPerimeter=0;" parent="1" target="VZfSvNCtM3Qqw5bsFJ7D-32" edge="1">
          <mxGeometry width="50" height="50" relative="1" as="geometry">
            <mxPoint x="5165" y="-530" as="sourcePoint" />
            <mxPoint x="5724" y="-435" as="targetPoint" />
          </mxGeometry>
        </mxCell>
        <mxCell id="VZfSvNCtM3Qqw5bsFJ7D-62" style="edgeStyle=orthogonalEdgeStyle;rounded=0;orthogonalLoop=1;jettySize=auto;html=1;exitX=1;exitY=0.5;exitDx=0;exitDy=0;exitPerimeter=0;entryX=0;entryY=0.5;entryDx=0;entryDy=0;entryPerimeter=0;" parent="1" source="VZfSvNCtM3Qqw5bsFJ7D-32" target="VZfSvNCtM3Qqw5bsFJ7D-42" edge="1">
          <mxGeometry relative="1" as="geometry" />
        </mxCell>
        <mxCell id="VZfSvNCtM3Qqw5bsFJ7D-63" style="edgeStyle=orthogonalEdgeStyle;rounded=0;orthogonalLoop=1;jettySize=auto;html=1;exitX=1;exitY=0.5;exitDx=0;exitDy=0;exitPerimeter=0;entryX=0;entryY=0.5;entryDx=0;entryDy=0;entryPerimeter=0;" parent="1" source="VZfSvNCtM3Qqw5bsFJ7D-42" target="VZfSvNCtM3Qqw5bsFJ7D-43" edge="1">
          <mxGeometry relative="1" as="geometry" />
        </mxCell>
        <mxCell id="VZfSvNCtM3Qqw5bsFJ7D-64" value="" style="endArrow=none;dashed=1;html=1;rounded=0;" parent="1" edge="1">
          <mxGeometry width="50" height="50" relative="1" as="geometry">
            <mxPoint x="5440" y="-433" as="sourcePoint" />
            <mxPoint x="5440" y="-530" as="targetPoint" />
          </mxGeometry>
        </mxCell>
        <mxCell id="VZfSvNCtM3Qqw5bsFJ7D-65" value="" style="endArrow=none;dashed=1;html=1;rounded=0;" parent="1" edge="1">
          <mxGeometry width="50" height="50" relative="1" as="geometry">
            <mxPoint x="5438" y="-429" as="sourcePoint" />
            <mxPoint x="5832" y="-429" as="targetPoint" />
          </mxGeometry>
        </mxCell>
        <mxCell id="VZfSvNCtM3Qqw5bsFJ7D-66" value="" style="endArrow=classic;html=1;rounded=0;entryX=-0.012;entryY=0.21;entryDx=0;entryDy=0;entryPerimeter=0;" parent="1" target="VZfSvNCtM3Qqw5bsFJ7D-51" edge="1">
          <mxGeometry width="50" height="50" relative="1" as="geometry">
            <mxPoint x="5822" y="-429" as="sourcePoint" />
            <mxPoint x="5724" y="-452" as="targetPoint" />
          </mxGeometry>
        </mxCell>
        <mxCell id="VZfSvNCtM3Qqw5bsFJ7D-67" value="" style="endArrow=none;dashed=1;html=1;rounded=0;exitX=0.5;exitY=0;exitDx=0;exitDy=0;exitPerimeter=0;" parent="1" edge="1">
          <mxGeometry width="50" height="50" relative="1" as="geometry">
            <mxPoint x="6177" y="-243" as="sourcePoint" />
            <mxPoint x="6177" y="-328" as="targetPoint" />
          </mxGeometry>
        </mxCell>
        <mxCell id="VZfSvNCtM3Qqw5bsFJ7D-68" value="" style="endArrow=none;dashed=1;html=1;rounded=0;" parent="1" edge="1">
          <mxGeometry width="50" height="50" relative="1" as="geometry">
            <mxPoint x="5610.75" y="-327" as="sourcePoint" />
            <mxPoint x="6180.75" y="-327" as="targetPoint" />
          </mxGeometry>
        </mxCell>
        <mxCell id="VZfSvNCtM3Qqw5bsFJ7D-69" value="" style="endArrow=none;dashed=1;html=1;rounded=0;entryX=0.5;entryY=1;entryDx=0;entryDy=0;entryPerimeter=0;" parent="1" target="VZfSvNCtM3Qqw5bsFJ7D-44" edge="1">
          <mxGeometry width="50" height="50" relative="1" as="geometry">
            <mxPoint x="5612.16" y="-326.5" as="sourcePoint" />
            <mxPoint x="5612.32" y="-444" as="targetPoint" />
          </mxGeometry>
        </mxCell>
        <mxCell id="VZfSvNCtM3Qqw5bsFJ7D-70" style="edgeStyle=orthogonalEdgeStyle;rounded=0;orthogonalLoop=1;jettySize=auto;html=1;exitX=1;exitY=0.5;exitDx=0;exitDy=0;exitPerimeter=0;entryX=0;entryY=0.5;entryDx=0;entryDy=0;entryPerimeter=0;" parent="1" source="VZfSvNCtM3Qqw5bsFJ7D-44" target="VZfSvNCtM3Qqw5bsFJ7D-47" edge="1">
          <mxGeometry relative="1" as="geometry" />
        </mxCell>
        <mxCell id="VZfSvNCtM3Qqw5bsFJ7D-71" style="edgeStyle=orthogonalEdgeStyle;rounded=0;orthogonalLoop=1;jettySize=auto;html=1;exitX=1;exitY=0.5;exitDx=0;exitDy=0;entryX=0;entryY=0.5;entryDx=0;entryDy=0;entryPerimeter=0;" parent="1" source="VZfSvNCtM3Qqw5bsFJ7D-50" target="VZfSvNCtM3Qqw5bsFJ7D-49" edge="1">
          <mxGeometry relative="1" as="geometry" />
        </mxCell>
        <mxCell id="VZfSvNCtM3Qqw5bsFJ7D-72" value="Отобразить обновленные данные" style="points=[[0.25,0,0],[0.5,0,0],[0.75,0,0],[1,0.25,0],[1,0.5,0],[1,0.75,0],[0.75,1,0],[0.5,1,0],[0.25,1,0],[0,0.75,0],[0,0.5,0],[0,0.25,0]];shape=mxgraph.bpmn.task;whiteSpace=wrap;rectStyle=rounded;size=10;html=1;container=1;expand=0;collapsible=0;taskMarker=service;" parent="1" vertex="1">
          <mxGeometry x="6351.25" y="-614.5" width="120" height="80" as="geometry" />
        </mxCell>
        <mxCell id="VZfSvNCtM3Qqw5bsFJ7D-73" style="edgeStyle=orthogonalEdgeStyle;rounded=0;orthogonalLoop=1;jettySize=auto;html=1;exitX=0.5;exitY=1;exitDx=0;exitDy=0;entryX=0;entryY=0.5;entryDx=0;entryDy=0;entryPerimeter=0;" parent="1" source="VZfSvNCtM3Qqw5bsFJ7D-50" target="VZfSvNCtM3Qqw5bsFJ7D-48" edge="1">
          <mxGeometry relative="1" as="geometry" />
        </mxCell>
        <mxCell id="VZfSvNCtM3Qqw5bsFJ7D-74" value="" style="endArrow=none;dashed=1;html=1;rounded=0;entryX=0.5;entryY=1;entryDx=0;entryDy=0;entryPerimeter=0;" parent="1" edge="1">
          <mxGeometry width="50" height="50" relative="1" as="geometry">
            <mxPoint x="6234" y="-431" as="sourcePoint" />
            <mxPoint x="6233.84" y="-552.5" as="targetPoint" />
          </mxGeometry>
        </mxCell>
        <mxCell id="VZfSvNCtM3Qqw5bsFJ7D-75" value="" style="endArrow=none;dashed=1;html=1;rounded=0;" parent="1" edge="1">
          <mxGeometry width="50" height="50" relative="1" as="geometry">
            <mxPoint x="5935" y="-428" as="sourcePoint" />
            <mxPoint x="6233" y="-428" as="targetPoint" />
          </mxGeometry>
        </mxCell>
        <mxCell id="VZfSvNCtM3Qqw5bsFJ7D-76" value="" style="endArrow=classic;html=1;rounded=0;entryX=1;entryY=0.5;entryDx=0;entryDy=0;" parent="1" edge="1">
          <mxGeometry width="50" height="50" relative="1" as="geometry">
            <mxPoint x="5939" y="-428" as="sourcePoint" />
            <mxPoint x="5920" y="-427.5000000000002" as="targetPoint" />
          </mxGeometry>
        </mxCell>
        <mxCell id="VZfSvNCtM3Qqw5bsFJ7D-77" value="" style="points=[[0.145,0.145,0],[0.5,0,0],[0.855,0.145,0],[1,0.5,0],[0.855,0.855,0],[0.5,1,0],[0.145,0.855,0],[0,0.5,0]];shape=mxgraph.bpmn.event;html=1;verticalLabelPosition=bottom;labelBackgroundColor=#ffffff;verticalAlign=top;align=center;perimeter=ellipsePerimeter;outlineConnect=0;aspect=fixed;outline=end;symbol=terminate;" parent="1" vertex="1">
          <mxGeometry x="6489" y="-240" width="50" height="50" as="geometry" />
        </mxCell>
        <mxCell id="VZfSvNCtM3Qqw5bsFJ7D-78" style="edgeStyle=orthogonalEdgeStyle;rounded=0;orthogonalLoop=1;jettySize=auto;html=1;exitX=1;exitY=0.5;exitDx=0;exitDy=0;exitPerimeter=0;entryX=0;entryY=0.5;entryDx=0;entryDy=0;entryPerimeter=0;" parent="1" source="VZfSvNCtM3Qqw5bsFJ7D-48" target="VZfSvNCtM3Qqw5bsFJ7D-77" edge="1">
          <mxGeometry relative="1" as="geometry">
            <Array as="points">
              <mxPoint x="6248" y="-518" />
              <mxPoint x="6248" y="-215" />
            </Array>
          </mxGeometry>
        </mxCell>
        <mxCell id="VZfSvNCtM3Qqw5bsFJ7D-79" style="edgeStyle=orthogonalEdgeStyle;rounded=0;orthogonalLoop=1;jettySize=auto;html=1;exitX=1;exitY=0.5;exitDx=0;exitDy=0;exitPerimeter=0;entryX=0;entryY=0.5;entryDx=0;entryDy=0;entryPerimeter=0;" parent="1" source="VZfSvNCtM3Qqw5bsFJ7D-49" target="VZfSvNCtM3Qqw5bsFJ7D-72" edge="1">
          <mxGeometry relative="1" as="geometry" />
        </mxCell>
        <mxCell id="VZfSvNCtM3Qqw5bsFJ7D-80" style="edgeStyle=orthogonalEdgeStyle;rounded=0;orthogonalLoop=1;jettySize=auto;html=1;exitX=1;exitY=0.5;exitDx=0;exitDy=0;exitPerimeter=0;entryX=0.5;entryY=0;entryDx=0;entryDy=0;entryPerimeter=0;" parent="1" source="VZfSvNCtM3Qqw5bsFJ7D-72" target="VZfSvNCtM3Qqw5bsFJ7D-77" edge="1">
          <mxGeometry relative="1" as="geometry" />
        </mxCell>
        <mxCell id="VZfSvNCtM3Qqw5bsFJ7D-81" value="&lt;font style=&quot;font-size: 18px;&quot;&gt;Преподаватель&lt;/font&gt;" style="text;html=1;align=center;verticalAlign=middle;whiteSpace=wrap;rounded=0;rotation=-90;" parent="1" vertex="1">
          <mxGeometry x="4991.81" y="-218.5" width="210.5" height="30" as="geometry" />
        </mxCell>
        <mxCell id="VZfSvNCtM3Qqw5bsFJ7D-82" value="&lt;font style=&quot;font-size: 25px;&quot;&gt;AS-IS и TO-BE модели процессов предметной области&amp;nbsp; в нотации BPMN&lt;/font&gt;" style="text;html=1;align=center;verticalAlign=middle;whiteSpace=wrap;rounded=0;" parent="1" vertex="1">
          <mxGeometry x="5314" y="-1111" width="950" height="30" as="geometry" />
        </mxCell>
        <mxCell id="VZfSvNCtM3Qqw5bsFJ7D-83" value="&lt;font style=&quot;font-size: 15px;&quot;&gt;Модель AS-IS для описания&amp;nbsp; бизнес-процесса до создания приложения&lt;/font&gt;" style="text;html=1;align=center;verticalAlign=middle;whiteSpace=wrap;rounded=0;" parent="1" vertex="1">
          <mxGeometry x="5445" y="-1072" width="713" height="30" as="geometry" />
        </mxCell>
        <mxCell id="VZfSvNCtM3Qqw5bsFJ7D-84" value="&lt;font style=&quot;font-size: 15px;&quot;&gt;Рисунок 1&lt;/font&gt;" style="text;html=1;align=center;verticalAlign=middle;whiteSpace=wrap;rounded=0;" parent="1" vertex="1">
          <mxGeometry x="5422" y="-792" width="713" height="30" as="geometry" />
        </mxCell>
        <mxCell id="VZfSvNCtM3Qqw5bsFJ7D-85" value="&lt;font style=&quot;font-size: 15px;&quot;&gt;Модель TO-BE для описания&amp;nbsp; автоматизированного бизнес-процесса&amp;nbsp;&lt;/font&gt;" style="text;html=1;align=center;verticalAlign=middle;whiteSpace=wrap;rounded=0;" parent="1" vertex="1">
          <mxGeometry x="5422" y="-731" width="713" height="30" as="geometry" />
        </mxCell>
        <mxCell id="VZfSvNCtM3Qqw5bsFJ7D-86" value="&lt;font style=&quot;font-size: 15px;&quot;&gt;Рисунок 2&lt;/font&gt;" style="text;html=1;align=center;verticalAlign=middle;whiteSpace=wrap;rounded=0;" parent="1" vertex="1">
          <mxGeometry x="5422" y="-83" width="713" height="30" as="geometry" />
        </mxCell>
        <mxCell id="VZfSvNCtM3Qqw5bsFJ7D-87" value="Данные корректные?" style="text;html=1;align=center;verticalAlign=middle;whiteSpace=wrap;rounded=0;" parent="1" vertex="1">
          <mxGeometry x="5829" y="-635.5" width="182" height="30" as="geometry" />
        </mxCell>
        <mxCell id="RwIFd4eKyQJzlmk_iYI4-2" value="" style="endArrow=none;html=1;rounded=0;exitX=0.056;exitY=1.016;exitDx=0;exitDy=0;exitPerimeter=0;" edge="1" parent="1">
          <mxGeometry width="50" height="50" relative="1" as="geometry">
            <mxPoint x="5122.04" y="-468.9980000000002" as="sourcePoint" />
            <mxPoint x="5122" y="-683" as="targetPoint" />
          </mxGeometry>
        </mxCell>
      </root>
    </mxGraphModel>
  </diagram>
</mxfile>
